<svg aria-hidden="true" style="position: absolute; width: 0; height: 0; overflow: hidden;" version="1.1" xmlns="http://www.w3.org/2000/svg" xmlns:xlink="http://www.w3.org/1999/xlink">
<defs>
<symbol id="icon-handshake-o" viewBox="0 0 36 28">
<title>handshake-o</title>
<path d="M3 18c1.313 0 1.313-2 0-2s-1.313 2 0 2zM26.016 17.094c-1.234-1.609-2.438-3.25-3.844-4.719l-1.953 2.188c-1.719 1.953-4.797 1.906-6.469-0.094-1.188-1.437-1.188-3.5 0.031-4.922l2.766-3.219c-0.969-0.5-2.141-0.328-3.187-0.328-0.922 0-1.813 0.375-2.469 1.031l-2.469 2.469h-2.422v8.5c0.688 0 1.312-0.094 1.859 0.438l4.641 4.562c0.953 0.922 2.187 1.734 3.547 1.734 0.703 0 1.453-0.234 1.953-0.734 1.172 0.406 2.531-0.25 2.891-1.453 0.75 0.063 1.437-0.172 1.984-0.688 0.359-0.328 0.828-0.984 0.781-1.5 0.141 0.141 0.484 0.156 0.672 0.156 1.859 0 2.828-1.953 1.687-3.422zM28.5 18h1.5v-8h-1.453l-2.453-2.812c-0.656-0.75-1.641-1.188-2.641-1.188h-2.609c-0.875 0-1.719 0.391-2.281 1.047l-3.266 3.797c-0.578 0.688-0.578 1.656-0.016 2.344 0.891 1.062 2.531 1.078 3.453 0.047l3.016-3.406c0.719-0.797 2.031-0.047 1.703 0.969 0.594 0.688 1.234 1.359 1.813 2.047 0.781 0.969 1.531 1.984 2.297 2.969 0.484 0.625 0.844 1.375 0.938 2.188zM33 18c1.313 0 1.313-2 0-2s-1.313 2 0 2zM36 9v10c0 0.547-0.453 1-1 1h-6.781c-0.562 1.359-1.797 2.266-3.234 2.469-0.672 0.984-1.703 1.734-2.859 1.984-0.859 1.094-2.25 1.75-3.641 1.656-2.578 1.453-5.484 0.187-7.406-1.703l-4.484-4.406h-5.594c-0.547 0-1-0.453-1-1v-10.5c0-0.547 0.453-1 1-1h6.578c1.813-1.813 3.062-3.5 5.781-3.5h1.828c1.016 0 2 0.313 2.828 0.875 0.828-0.562 1.813-0.875 2.828-0.875h2.609c2.969 0 4.203 1.937 6 4h5.547c0.547 0 1 0.453 1 1z"></path>
</symbol>
<symbol id="icon-search" viewBox="0 0 48 48">
<title>search</title>
<path d="M29.652 13.998c2.16 0.5 3.879 2.34 4.379 4.35 0.171 0.94 0.99 1.65 1.971 1.65 1.1 0 2-0.9 2-2 0-1.44-1.21-3.63-2.86-5.27-1.62-1.6-3.55-2.73-5.14-2.73-1.1 0-2 0.93-2 2.030 0 0.979 0.71 1.8 1.65 1.97zM2.162 40.218c-1.55 1.549-1.55 4.070 0 5.619 1.55 1.551 4.070 1.551 5.61 0l11.489-11.48c2.681 1.672 5.84 2.641 9.24 2.641 9.67 0 17.5-7.83 17.5-17.5s-7.83-17.5-17.5-17.5-17.5 7.83-17.5 17.5c0 3.39 0.971 6.56 2.641 9.24l-11.48 11.48zM16.002 19.498c0-6.9 5.601-12.5 12.5-12.5 6.9 0 12.5 5.6 12.5 12.5s-5.6 12.5-12.5 12.5c-6.899-0.001-12.5-5.601-12.5-12.5z"></path>
</symbol>
<symbol id="icon-clipboard" viewBox="0 0 48 48">
<title>clipboard</title>
<path d="M30.5 24h-14c-1.38 0-2.5 1.12-2.5 2.5s1.12 2.5 2.5 2.5h14c1.38 0 2.5-1.12 2.5-2.5s-1.12-2.5-2.5-2.5zM30.5 33h-14c-1.38 0-2.5 1.12-2.5 2.5s1.12 2.5 2.5 2.5h14c1.38 0 2.5-1.12 2.5-2.5s-1.12-2.5-2.5-2.5zM4 44c0 2.21 1.79 4 4 4h31c2.21 0 4-1.79 4-4l-0-34c0-2.21-1.79-4-4-4h-8.15c-0.689-3.42-3.72-6-7.35-6s-6.66 2.58-7.35 6h-8.15c-2.21 0-4 1.79-4 4l0 34zM11.2 11h4.8v1.8c0 1.22 0.98 2.2 2.2 2.2h10.6c1.22 0 2.2-0.98 2.2-2.2l-0-1.8h4.8c1.22 0 2.2 0.98 2.2 2.2v27.6c0 1.22-0.98 2.2-2.2 2.2h-24.6c-1.22 0-2.2-0.98-2.2-2.2v-27.6c0-1.22 0.98-2.2 2.2-2.2zM21 7.5c0-1.38 1.12-2.5 2.5-2.5s2.5 1.12 2.5 2.5-1.12 2.5-2.5 2.5-2.5-1.12-2.5-2.5z"></path>
</symbol>
<symbol id="icon-user" viewBox="0 0 48 48">
<title>user</title>
<path d="M41.689 34.59c-2.1-2.74-4.64-4.52-8.279-5.529l-3.41 11.939c0 1.1-0.9 2-2 2s-2-0.9-2-2v-9.5c0-1.38-1.12-2.5-2.5-2.5s-2.5 1.12-2.5 2.5v9.5c0 1.1-0.9 2-2 2s-2-0.9-2-2l-3.41-11.939c-3.64 1.020-6.18 2.789-8.28 5.529-0.83 1.080-1.28 3.25-1.31 4.41v5c0 2.21 1.79 4 4 4h31c2.21 0 4-1.79 4-4v-5c-0.030-1.16-0.48-3.33-1.311-4.41zM23.5 25c6.74 0 10.5-8.58 10.5-14.42s-4.7-10.58-10.5-10.58-10.5 4.74-10.5 10.58 3.64 14.42 10.5 14.42z"></path>
</symbol>
<symbol id="icon-cart" viewBox="0 0 48 48">
<title>cart</title>
<path d="M25 37.5c0-0.88-0.15-1.72-0.431-2.5h5.851c-0.27 0.78-0.42 1.62-0.42 2.5 0 4.141 3.359 7.5 7.5 7.5 4.14 0 7.5-3.359 7.5-7.5 0-4.14-3.36-7.5-7.5-7.5h-16.5c-1.1 0-2-0.9-2-2s0.9-2 2-2h17.2c1.81 0 3.369-1.061 4.079-2.6 0.271-0.58 5.451-12.39 5.451-12.39 0.14-0.321 0.27-0.64 0.27-1.010 0-1.1-0.9-2-2-2l-31.221-0-0.84-2.59c-0.389-1.39-1.479-2.41-2.939-2.41h-8.5c-1.38 0-2.5 1.12-2.5 2.5s1.12 2.5 2.5 2.5h5.25c0.89 0 1.64 0.58 1.9 1.37l4.22 21.569c-2.309 1.271-3.87 3.741-3.87 6.561 0 4.141 3.359 7.5 7.5 7.5 4.14 0 7.5-3.359 7.5-7.5zM20 37.5c0 1.38-1.12 2.5-2.5 2.5s-2.5-1.12-2.5-2.5 1.12-2.5 2.5-2.5 2.5 1.12 2.5 2.5zM40 37.5c0 1.38-1.12 2.5-2.5 2.5s-2.5-1.12-2.5-2.5 1.12-2.5 2.5-2.5 2.5 1.12 2.5 2.5z"></path>
</symbol>
<symbol id="icon-truck" viewBox="0 0 48 48">
<title>truck</title>
<path d="M44 37c2.21 0 4-1.79 4-4v-25c0-2.21-1.79-4-4-4l-22 0c-2.21 0-4 1.79-4 4v4h-6.080c-1.34 0-2.53 0.53-3.39 1.38l-5.060 5.080c-0.91 0.9-1.47 2.16-1.47 3.54v10.050c-1.14 0.23-2 1.24-2 2.45 0 1.38 1.12 2.5 2.5 2.5h3.52c0.25 3.91 3.51 7 7.48 7s7.23-3.090 7.48-7h7.030c0.26 3.91 3.52 7 7.49 7s7.23-3.090 7.48-7h1.020zM16 36.5c0 1.38-1.12 2.5-2.5 2.5s-2.5-1.12-2.5-2.5 1.12-2.5 2.5-2.5 2.5 1.12 2.5 2.5zM38 36.5c0 1.38-1.12 2.5-2.5 2.5s-2.5-1.12-2.5-2.5 1.12-2.5 2.5-2.5 2.5 1.12 2.5 2.5zM7 25v-2.529c0-1 0.4-1.471 1.15-2.221l2.15-2.15c0.68-0.68 1.2-1.1 2.18-1.1l5.52-0v8l-11 0z"></path>
</symbol>
<symbol id="icon-car" viewBox="0 0 48 48">
<title>car</title>
<path d="M28 5h-3c-7.85 0-14.29 6.020-14.95 13.7-4.78 2.51-8.050 7.521-8.050 13.3l0.010 0.050c-1.151 0.23-2.010 1.24-2.010 2.45 0 1.38 1.12 2.5 2.5 2.5h3.52c0.25 3.91 3.51 7 7.48 7s7.23-3.090 7.48-7h7.039c0.25 3.91 3.51 7 7.48 7 4.14 0 7.5-3.36 7.5-7.5 0-0.27-0.020-0.55-0.050-0.811 3.021-1.729 5.051-4.968 5.051-8.689v-6.8c0-1.22-0.98-2.2-2.2-2.2h-2.93c-0.98-7.34-7.261-13-14.87-13zM24 10.050v9.95h-9c0-5.189 3.95-9.45 9-9.95zM29 20v-9.95c5.050 0.5 9 4.761 9 9.95h-9zM16 36.5c0 1.38-1.12 2.5-2.5 2.5s-2.5-1.12-2.5-2.5 1.12-2.5 2.5-2.5 2.5 1.12 2.5 2.5zM38 36.5c0 1.38-1.12 2.5-2.5 2.5s-2.5-1.12-2.5-2.5 1.12-2.5 2.5-2.5 2.5 1.12 2.5 2.5z"></path>
</symbol>
</defs>
</svg>
